<svg aria-roledescription="er" role="graphics-document document" viewBox="0 0 1665 990" style="max-width: 100%;" xmlns="http://www.w3.org/2000/svg" width="100%" id="graph-div" height="100%" xmlns:xlink="http://www.w3.org/1999/xlink"><style>@import url("https://cdnjs.cloudflare.com/ajax/libs/font-awesome/6.5.1/css/all.min.css");'</style><style>#graph-div{font-family:"trebuchet ms",verdana,arial,sans-serif;font-size:16px;fill:#333;}#graph-div .error-icon{fill:#552222;}#graph-div .error-text{fill:#552222;stroke:#552222;}#graph-div .edge-thickness-normal{stroke-width:2px;}#graph-div .edge-thickness-thick{stroke-width:3.5px;}#graph-div .edge-pattern-solid{stroke-dasharray:0;}#graph-div .edge-pattern-dashed{stroke-dasharray:3;}#graph-div .edge-pattern-dotted{stroke-dasharray:2;}#graph-div .marker{fill:#333333;stroke:#333333;}#graph-div .marker.cross{stroke:#333333;}#graph-div svg{font-family:"trebuchet ms",verdana,arial,sans-serif;font-size:16px;}#graph-div .entityBox{fill:#ECECFF;stroke:#9370DB;}#graph-div .attributeBoxOdd{fill:#ffffff;stroke:#9370DB;}#graph-div .attributeBoxEven{fill:#f2f2f2;stroke:#9370DB;}#graph-div .relationshipLabelBox{fill:hsl(80, 100%, 96.2745098039%);opacity:0.7;background-color:hsl(80, 100%, 96.2745098039%);}#graph-div .relationshipLabelBox rect{opacity:0.5;}#graph-div .relationshipLine{stroke:#333333;}#graph-div .entityTitleText{text-anchor:middle;font-size:18px;fill:#333;}#graph-div #MD_PARENT_START{fill:#f5f5f5!important;stroke:#333333!important;stroke-width:1;}#graph-div #MD_PARENT_END{fill:#f5f5f5!important;stroke:#333333!important;stroke-width:1;}#graph-div :root{--mermaid-font-family:"trebuchet ms",verdana,arial,sans-serif;}</style><g></g><defs><marker orient="auto" markerHeight="240" markerWidth="190" refY="7" refX="0" id="MD_PARENT_START"><path d="M 18,7 L9,13 L1,7 L9,1 Z"></path></marker></defs><defs><marker orient="auto" markerHeight="28" markerWidth="20" refY="7" refX="19" id="MD_PARENT_END"><path d="M 18,7 L9,13 L1,7 L9,1 Z"></path></marker></defs><defs><marker orient="auto" markerHeight="18" markerWidth="18" refY="9" refX="0" id="ONLY_ONE_START"><path d="M9,0 L9,18 M15,0 L15,18" fill="none" stroke="gray"></path></marker></defs><defs><marker orient="auto" markerHeight="18" markerWidth="18" refY="9" refX="18" id="ONLY_ONE_END"><path d="M3,0 L3,18 M9,0 L9,18" fill="none" stroke="gray"></path></marker></defs><defs><marker orient="auto" markerHeight="18" markerWidth="30" refY="9" refX="0" id="ZERO_OR_ONE_START"><circle r="6" cy="9" cx="21" fill="white" stroke="gray"></circle><path d="M9,0 L9,18" fill="none" stroke="gray"></path></marker></defs><defs><marker orient="auto" markerHeight="18" markerWidth="30" refY="9" refX="30" id="ZERO_OR_ONE_END"><circle r="6" cy="9" cx="9" fill="white" stroke="gray"></circle><path d="M21,0 L21,18" fill="none" stroke="gray"></path></marker></defs><defs><marker orient="auto" markerHeight="36" markerWidth="45" refY="18" refX="18" id="ONE_OR_MORE_START"><path d="M0,18 Q 18,0 36,18 Q 18,36 0,18 M42,9 L42,27" fill="none" stroke="gray"></path></marker></defs><defs><marker orient="auto" markerHeight="36" markerWidth="45" refY="18" refX="27" id="ONE_OR_MORE_END"><path d="M3,9 L3,27 M9,18 Q27,0 45,18 Q27,36 9,18" fill="none" stroke="gray"></path></marker></defs><defs><marker orient="auto" markerHeight="36" markerWidth="57" refY="18" refX="18" id="ZERO_OR_MORE_START"><circle r="6" cy="18" cx="48" fill="white" stroke="gray"></circle><path d="M0,18 Q18,0 36,18 Q18,36 0,18" fill="none" stroke="gray"></path></marker></defs><defs><marker orient="auto" markerHeight="36" markerWidth="57" refY="18" refX="39" id="ZERO_OR_MORE_END"><circle r="6" cy="18" cx="9" fill="white" stroke="gray"></circle><path d="M21,18 Q39,0 57,18 Q39,36 21,18" fill="none" stroke="gray"></path></marker></defs><path style="stroke: gray; fill: none;" marker-start="url(#ONLY_ONE_START)" marker-end="url(#ZERO_OR_ONE_END)" d="M70,795L70,803.333C70,811.667,70,828.333,157.5,849.982C245,871.63,420,898.261,507.5,911.576L595,924.891" class="er relationshipLine"></path><path style="stroke: gray; fill: none;" marker-start="url(#ONLY_ONE_START)" marker-end="url(#ZERO_OR_ONE_END)" d="M770,239.792L678.333,253.16C586.667,266.528,403.333,293.264,311.667,321.215C220,349.167,220,378.333,220,407.5C220,436.667,220,465.833,220,495C220,524.167,220,553.333,220,582.5C220,611.667,220,640.833,220,670C220,699.167,220,728.333,220,757.5C220,786.667,220,815.833,282.5,843.284C345,870.735,470,896.471,532.5,909.338L595,922.206" class="er relationshipLine"></path><path style="stroke: gray; fill: none;" marker-start="url(#ONLY_ONE_START)" marker-end="url(#ZERO_OR_ONE_END)" d="M770,241.711L699.167,254.759C628.333,267.807,486.667,293.904,420.595,315.285C354.524,336.667,364.048,353.333,368.81,361.667L373.571,370" class="er relationshipLine"></path><path style="stroke: gray; fill: none;" marker-start="url(#ONLY_ONE_START)" marker-end="url(#ZERO_OR_ONE_END)" d="M852.143,270L859.286,278.333C866.429,286.667,880.714,303.333,887.857,320C895,336.667,895,353.333,895,361.667L895,370" class="er relationshipLine"></path><path style="stroke: gray; fill: none;" marker-start="url(#ONLY_ONE_START)" marker-end="url(#ZERO_OR_ONE_END)" d="M787.857,270L780.714,278.333C773.571,286.667,759.286,303.333,752.143,326.25C745,349.167,745,378.333,745,407.5C745,436.667,745,465.833,761.667,490.139C778.333,514.444,811.667,533.889,828.333,543.611L845,553.333" class="er relationshipLine"></path><path style="stroke: gray; fill: none;" marker-start="url(#ONE_OR_MORE_START)" marker-end="url(#ONE_OR_MORE_END)" stroke-dasharray="8,8" d="M720,86.667L736.667,96.389C753.333,106.111,786.667,125.556,803.333,143.611C820,161.667,820,178.333,820,186.667L820,195" class="er relationshipLine"></path><path style="stroke: gray; fill: none;" marker-start="url(#ONLY_ONE_START)" marker-end="url(#ZERO_OR_ONE_END)" d="M395,445L395,453.333C395,461.667,395,478.333,395,501.25C395,524.167,395,553.333,395,582.5C395,611.667,395,640.833,395,670C395,699.167,395,728.333,395,757.5C395,786.667,395,815.833,428.333,842.083C461.667,868.333,528.333,891.667,561.667,903.333L595,915" class="er relationshipLine"></path><path style="stroke: gray; fill: none;" marker-start="url(#ONLY_ONE_START)" marker-end="url(#ZERO_OR_ONE_END)" d="M845,418.438L786.667,431.198C728.333,443.958,611.667,469.479,553.333,496.823C495,524.167,495,553.333,495,582.5C495,611.667,495,640.833,495,670C495,699.167,495,728.333,495,757.5C495,786.667,495,815.833,511.667,840.139C528.333,864.444,561.667,883.889,578.333,893.611L595,903.333" class="er relationshipLine"></path><path style="stroke: gray; fill: none;" marker-start="url(#ONLY_ONE_START)" marker-end="url(#ZERO_OR_ONE_END)" d="M845,425L811.667,436.667C778.333,448.333,711.667,471.667,678.333,497.917C645,524.167,645,553.333,645,582.5C645,611.667,645,640.833,645,663.75C645,686.667,645,703.333,645,711.667L645,720" class="er relationshipLine"></path><path style="stroke: gray; fill: none;" marker-start="url(#ONLY_ONE_START)" marker-end="url(#ZERO_OR_ONE_END)" d="M895,445L895,453.333C895,461.667,895,478.333,895,495C895,511.667,895,528.333,895,536.667L895,545" class="er relationshipLine"></path><path style="stroke: gray; fill: none;" marker-start="url(#ONLY_ONE_START)" marker-end="url(#ZERO_OR_ONE_END)" d="M945,425L978.333,436.667C1011.667,448.333,1078.333,471.667,1111.667,497.917C1145,524.167,1145,553.333,1145,582.5C1145,611.667,1145,640.833,1149.762,663.75C1154.524,686.667,1164.048,703.333,1168.81,711.667L1173.571,720" class="er relationshipLine"></path><path style="stroke: gray; fill: none;" marker-start="url(#ONLY_ONE_START)" marker-end="url(#ZERO_OR_ONE_END)" d="M645,795L645,803.333C645,811.667,645,828.333,645,845C645,861.667,645,878.333,645,886.667L645,895" class="er relationshipLine"></path><path style="stroke: gray; fill: none;" marker-start="url(#ONLY_ONE_START)" marker-end="url(#ZERO_OR_ONE_END)" d="M895,620L895,628.333C895,636.667,895,653.333,895,676.25C895,699.167,895,728.333,895,757.5C895,786.667,895,815.833,861.667,842.083C828.333,868.333,761.667,891.667,728.333,903.333L695,915" class="er relationshipLine"></path><path style="stroke: gray; fill: none;" marker-start="url(#ONLY_ONE_START)" marker-end="url(#ZERO_OR_ONE_END)" d="M945,595L995,607.5C1045,620,1145,645,1190.238,665.833C1235.476,686.667,1225.952,703.333,1221.19,711.667L1216.429,720" class="er relationshipLine"></path><path style="stroke: gray; fill: none;" marker-start="url(#ONLY_ONE_START)" marker-end="url(#ZERO_OR_ONE_END)" d="M945,553.333L961.667,543.611C978.333,533.889,1011.667,514.444,1028.333,490.139C1045,465.833,1045,436.667,1045,407.5C1045,378.333,1045,349.167,1015.833,323.241C986.667,297.315,928.333,274.63,899.167,263.287L870,251.944" class="er relationshipLine"></path><path style="stroke: gray; fill: none;" marker-start="url(#ONLY_ONE_START)" marker-end="url(#ZERO_OR_ONE_END)" d="M1195,795L1195,803.333C1195,811.667,1195,828.333,1111.667,849.924C1028.333,871.515,861.667,898.03,778.333,911.288L695,924.545" class="er relationshipLine"></path><path style="stroke: gray; fill: none;" marker-start="url(#ONLY_ONE_START)" marker-end="url(#ZERO_OR_ONE_END)" d="M620,82.5L599.167,92.917C578.333,103.333,536.667,124.167,515.833,149.167C495,174.167,495,203.333,495,232.5C495,261.667,495,290.833,485.476,313.75C475.952,336.667,456.905,353.333,447.381,361.667L437.857,370" class="er relationshipLine"></path><path style="stroke: gray; fill: none;" marker-start="url(#ONLY_ONE_START)" marker-end="url(#ZERO_OR_ONE_END)" d="M720,86.667L736.667,96.389C753.333,106.111,786.667,125.556,803.333,143.611C820,161.667,820,178.333,820,186.667L820,195" class="er relationshipLine"></path><path style="stroke: gray; fill: none;" marker-start="url(#ONLY_ONE_START)" marker-end="url(#ZERO_OR_ONE_END)" d="M1395,795L1395,803.333C1395,811.667,1395,828.333,1278.333,850.278C1161.667,872.222,928.333,899.444,811.667,913.056L695,926.667" class="er relationshipLine"></path><path style="stroke: gray; fill: none;" marker-start="url(#ONLY_ONE_START)" marker-end="url(#ZERO_OR_ONE_END)" d="M1595,795L1595,803.333C1595,811.667,1595,828.333,1445,850.482C1295,872.632,995,900.263,845,914.079L695,927.895" class="er relationshipLine"></path><g transform="translate(20,720 )" id="entity-keyunique-d24eb254-2890-594a-b63d-a60396d0eb23"><rect height="75" width="100" y="0" x="0" class="er entityBox"></rect><text style="dominant-baseline: middle; text-anchor: middle; font-size: 12px;" transform="translate(50,37.5)" y="0" x="0" id="text-entity-keyunique-d24eb254-2890-594a-b63d-a60396d0eb23" class="er entityLabel">key_unique</text></g><g transform="translate(595,895 )" id="entity-user-dad033c9-7a45-5f6a-ab5a-b5def405b2a6"><rect height="75" width="100" y="0" x="0" class="er entityBox"></rect><text style="dominant-baseline: middle; text-anchor: middle; font-size: 12px;" transform="translate(50,37.5)" y="0" x="0" id="text-entity-user-dad033c9-7a45-5f6a-ab5a-b5def405b2a6" class="er entityLabel">user</text></g><g transform="translate(770,195 )" id="entity-tasklist-a44ecb35-38b6-52ec-9e2e-a0bf08c38fab"><rect height="75" width="100" y="0" x="0" class="er entityBox"></rect><text style="dominant-baseline: middle; text-anchor: middle; font-size: 12px;" transform="translate(50,37.5)" y="0" x="0" id="text-entity-tasklist-a44ecb35-38b6-52ec-9e2e-a0bf08c38fab" class="er entityLabel">task_list</text></g><g transform="translate(345,370 )" id="entity-adress-98d8acae-25a4-5edd-86cf-0f3acfb9aa14"><rect height="75" width="100" y="0" x="0" class="er entityBox"></rect><text style="dominant-baseline: middle; text-anchor: middle; font-size: 12px;" transform="translate(50,37.5)" y="0" x="0" id="text-entity-adress-98d8acae-25a4-5edd-86cf-0f3acfb9aa14" class="er entityLabel">adress</text></g><g transform="translate(845,370 )" id="entity-category-15b45b76-008e-5d81-8567-ac2aeaa094e1"><rect height="75" width="100" y="0" x="0" class="er entityBox"></rect><text style="dominant-baseline: middle; text-anchor: middle; font-size: 12px;" transform="translate(50,37.5)" y="0" x="0" id="text-entity-category-15b45b76-008e-5d81-8567-ac2aeaa094e1" class="er entityLabel">category</text></g><g transform="translate(845,545 )" id="entity-icons-720fa4ee-10b0-51cd-817f-477b04d7e03c"><rect height="75" width="100" y="0" x="0" class="er entityBox"></rect><text style="dominant-baseline: middle; text-anchor: middle; font-size: 12px;" transform="translate(50,37.5)" y="0" x="0" id="text-entity-icons-720fa4ee-10b0-51cd-817f-477b04d7e03c" class="er entityLabel">icons</text></g><g transform="translate(620,20 )" id="entity-repeat-800f6f06-ae08-58c1-bd92-79b369aa988e"><rect height="75" width="100" y="0" x="0" class="er entityBox"></rect><text style="dominant-baseline: middle; text-anchor: middle; font-size: 12px;" transform="translate(50,37.5)" y="0" x="0" id="text-entity-repeat-800f6f06-ae08-58c1-bd92-79b369aa988e" class="er entityLabel">repeat</text></g><g transform="translate(595,720 )" id="entity-color-e54a72b1-3cd8-5935-b27c-d1e1296482a3"><rect height="75" width="100" y="0" x="0" class="er entityBox"></rect><text style="dominant-baseline: middle; text-anchor: middle; font-size: 12px;" transform="translate(50,37.5)" y="0" x="0" id="text-entity-color-e54a72b1-3cd8-5935-b27c-d1e1296482a3" class="er entityLabel">color</text></g><g transform="translate(1145,720 )" id="entity-audio-386875e1-95a0-5895-b6cd-e8c243081dd1"><rect height="75" width="100" y="0" x="0" class="er entityBox"></rect><text style="dominant-baseline: middle; text-anchor: middle; font-size: 12px;" transform="translate(50,37.5)" y="0" x="0" id="text-entity-audio-386875e1-95a0-5895-b6cd-e8c243081dd1" class="er entityLabel">audio</text></g><g transform="translate(1345,720 )" id="entity-options-b6cfcb6b-6300-5caf-ba7b-2fe186af2e63"><rect height="75" width="100" y="0" x="0" class="er entityBox"></rect><text style="dominant-baseline: middle; text-anchor: middle; font-size: 12px;" transform="translate(50,37.5)" y="0" x="0" id="text-entity-options-b6cfcb6b-6300-5caf-ba7b-2fe186af2e63" class="er entityLabel">options</text></g><g transform="translate(1545,720 )" id="entity-roles-fb364614-3b4d-5b30-987f-43c2f326d9bb"><rect height="75" width="100" y="0" x="0" class="er entityBox"></rect><text style="dominant-baseline: middle; text-anchor: middle; font-size: 12px;" transform="translate(50,37.5)" y="0" x="0" id="text-entity-roles-fb364614-3b4d-5b30-987f-43c2f326d9bb" class="er entityLabel">roles</text></g><rect height="14" width="55.703125" y="874.7919311523438" x="292.1591491699219" class="er relationshipLabelBox"></rect><text style="text-anchor: middle; dominant-baseline: middle; font-size: 12px;" y="881.7919311523438" x="320.0107116699219" id="rel1417" class="er relationshipLabel">belongs to</text><rect height="14" width="55.703125" y="492.40869140625" x="192.1484375" class="er relationshipLabelBox"></rect><text style="text-anchor: middle; dominant-baseline: middle; font-size: 12px;" y="499.40869140625" x="220" id="rel1418" class="er relationshipLabel">belongs to</text><rect height="14" width="19.359375" y="276.45623779296875" x="540.8955688476562" class="er relationshipLabelBox"></rect><text style="text-anchor: middle; dominant-baseline: middle; font-size: 12px;" y="283.45623779296875" x="550.5752563476562" id="rel1419" class="er relationshipLabel">has</text><rect height="14" width="19.359375" y="308.12579345703125" x="875.8937377929688" class="er relationshipLabelBox"></rect><text style="text-anchor: middle; dominant-baseline: middle; font-size: 12px;" y="315.12579345703125" x="885.5734252929688" id="rel1420" class="er relationshipLabel">has</text><rect height="14" width="19.359375" y="421.5409851074219" x="735.5550537109375" class="er relationshipLabelBox"></rect><text style="text-anchor: middle; dominant-baseline: middle; font-size: 12px;" y="428.5409851074219" x="745.2347412109375" id="rel1421" class="er relationshipLabel">has</text><rect height="14" width="55.703125" y="121.52352905273438" x="758.5032958984375" class="er relationshipLabelBox"></rect><text style="text-anchor: middle; dominant-baseline: middle; font-size: 12px;" y="128.52352905273438" x="786.3548583984375" id="rel1422" class="er relationshipLabel">belongs to</text><rect height="14" width="55.703125" y="733.0905151367188" x="367.1484375" class="er relationshipLabelBox"></rect><text style="text-anchor: middle; dominant-baseline: middle; font-size: 12px;" y="740.0905151367188" x="395" id="rel1423" class="er relationshipLabel">belongs to</text><rect height="14" width="55.703125" y="551.3782348632812" x="468.3765563964844" class="er relationshipLabelBox"></rect><text style="text-anchor: middle; dominant-baseline: middle; font-size: 12px;" y="558.3782348632812" x="496.2281188964844" id="rel1424" class="er relationshipLabel">belongs to</text><rect height="14" width="25.359375" y="508.63922119140625" x="648.1351928710938" class="er relationshipLabelBox"></rect><text style="text-anchor: middle; dominant-baseline: middle; font-size: 12px;" y="515.6392211914062" x="660.8148803710938" id="rel1425" class="er relationshipLabel">uses</text><rect height="14" width="25.359375" y="488" x="882.3203125" class="er relationshipLabelBox"></rect><text style="text-anchor: middle; dominant-baseline: middle; font-size: 12px;" y="495" x="895" id="rel1426" class="er relationshipLabel">uses</text><rect height="14" width="25.359375" y="510.844482421875" x="1118.0792236328125" class="er relationshipLabelBox"></rect><text style="text-anchor: middle; dominant-baseline: middle; font-size: 12px;" y="517.844482421875" x="1130.7589111328125" id="rel1427" class="er relationshipLabel">uses</text><rect height="14" width="55.703125" y="838" x="617.1484375" class="er relationshipLabelBox"></rect><text style="text-anchor: middle; dominant-baseline: middle; font-size: 12px;" y="845" x="645" id="rel1428" class="er relationshipLabel">belongs to</text><rect height="14" width="55.703125" y="817.3607788085938" x="851.3335571289062" class="er relationshipLabelBox"></rect><text style="text-anchor: middle; dominant-baseline: middle; font-size: 12px;" y="824.3607788085938" x="879.1851196289062" id="rel1429" class="er relationshipLabel">belongs to</text><rect height="14" width="25.359375" y="629.382568359375" x="1091.6806640625" class="er relationshipLabelBox"></rect><text style="text-anchor: middle; dominant-baseline: middle; font-size: 12px;" y="636.382568359375" x="1104.3603515625" id="rel1430" class="er relationshipLabel">uses</text><rect height="14" width="55.703125" y="368.3013610839844" x="1015.6722412109375" class="er relationshipLabelBox"></rect><text style="text-anchor: middle; dominant-baseline: middle; font-size: 12px;" y="375.3013610839844" x="1043.5238037109375" id="rel1431" class="er relationshipLabel">belongs to</text><rect height="14" width="55.703125" y="874.4857788085938" x="929.83251953125" class="er relationshipLabelBox"></rect><text style="text-anchor: middle; dominant-baseline: middle; font-size: 12px;" y="881.4857788085938" x="957.68408203125" id="rel1432" class="er relationshipLabel">belongs to</text><rect height="14" width="49.3515625" y="197.69142150878906" x="471.0029296875" class="er relationshipLabelBox"></rect><text style="text-anchor: middle; dominant-baseline: middle; font-size: 12px;" y="204.69142150878906" x="495.6787109375" id="rel1433" class="er relationshipLabel">occurs at</text><rect height="14" width="55.703125" y="121.52352905273438" x="758.5032958984375" class="er relationshipLabelBox"></rect><text style="text-anchor: middle; dominant-baseline: middle; font-size: 12px;" y="128.52352905273438" x="786.3548583984375" id="rel1434" class="er relationshipLabel">belongs to</text><rect height="14" width="55.703125" y="876.3207397460938" x="1028.5203857421875" class="er relationshipLabelBox"></rect><text style="text-anchor: middle; dominant-baseline: middle; font-size: 12px;" y="883.3207397460938" x="1056.3719482421875" id="rel1435" class="er relationshipLabel">belongs to</text><rect height="14" width="55.703125" y="877.3387451171875" x="1127.613525390625" class="er relationshipLabelBox"></rect><text style="text-anchor: middle; dominant-baseline: middle; font-size: 12px;" y="884.3387451171875" x="1155.465087890625" id="rel1436" class="er relationshipLabel">belongs to</text></svg>