<svg width="1689" height="852" viewBox="0 0 1689 852" fill="none" xmlns="http://www.w3.org/2000/svg">
<rect width="1689" height="852" fill="#F5F5F5"/>
<g clip-path="url(#clip0_0_1)">
<rect width="1194" height="834" fill="white"/>
<rect x="185.5" y="0.5" width="284" height="160" stroke="black"/>
<rect x="0.5" y="0.5" width="185" height="160" stroke="black"/>
<rect x="0.5" y="730.5" width="185" height="103" stroke="black"/>
<rect x="0.5" y="160.5" width="185" height="570" stroke="black"/>
<path d="M1091.93 81V63.5455H1094.05V79.125H1102.16V81H1091.93ZM1119.48 72.2727C1119.48 74.1136 1119.15 75.7045 1118.48 77.0455C1117.82 78.3864 1116.91 79.4205 1115.75 80.1477C1114.59 80.875 1113.27 81.2386 1111.78 81.2386C1110.29 81.2386 1108.96 80.875 1107.81 80.1477C1106.65 79.4205 1105.73 78.3864 1105.07 77.0455C1104.4 75.7045 1104.07 74.1136 1104.07 72.2727C1104.07 70.4318 1104.4 68.8409 1105.07 67.5C1105.73 66.1591 1106.65 65.125 1107.81 64.3977C1108.96 63.6705 1110.29 63.3068 1111.78 63.3068C1113.27 63.3068 1114.59 63.6705 1115.75 64.3977C1116.91 65.125 1117.82 66.1591 1118.48 67.5C1119.15 68.8409 1119.48 70.4318 1119.48 72.2727ZM1117.44 72.2727C1117.44 70.7614 1117.18 69.4858 1116.68 68.446C1116.18 67.4062 1115.5 66.6193 1114.64 66.0852C1113.79 65.5511 1112.83 65.2841 1111.78 65.2841C1110.72 65.2841 1109.76 65.5511 1108.9 66.0852C1108.05 66.6193 1107.37 67.4062 1106.87 68.446C1106.37 69.4858 1106.12 70.7614 1106.12 72.2727C1106.12 73.7841 1106.37 75.0597 1106.87 76.0994C1107.37 77.1392 1108.05 77.9261 1108.9 78.4602C1109.76 78.9943 1110.72 79.2614 1111.78 79.2614C1112.83 79.2614 1113.79 78.9943 1114.64 78.4602C1115.5 77.9261 1116.18 77.1392 1116.68 76.0994C1117.18 75.0597 1117.44 73.7841 1117.44 72.2727ZM1134.97 69C1134.78 68.4261 1134.53 67.9119 1134.23 67.4574C1133.92 66.9972 1133.56 66.6051 1133.14 66.2812C1132.73 65.9574 1132.26 65.7102 1131.73 65.5398C1131.2 65.3693 1130.62 65.2841 1129.99 65.2841C1128.96 65.2841 1128.02 65.5511 1127.17 66.0852C1126.32 66.6193 1125.65 67.4062 1125.15 68.446C1124.65 69.4858 1124.4 70.7614 1124.4 72.2727C1124.4 73.7841 1124.65 75.0597 1125.16 76.0994C1125.66 77.1392 1126.35 77.9261 1127.21 78.4602C1128.08 78.9943 1129.05 79.2614 1130.13 79.2614C1131.13 79.2614 1132.01 79.0483 1132.77 78.6222C1133.54 78.1903 1134.13 77.5824 1134.56 76.7983C1134.99 76.0085 1135.21 75.0795 1135.21 74.0114L1135.85 74.1477H1130.6V72.2727H1137.25V74.1477C1137.25 75.5852 1136.94 76.8352 1136.33 77.8977C1135.72 78.9602 1134.88 79.7841 1133.81 80.3693C1132.74 80.9489 1131.51 81.2386 1130.13 81.2386C1128.58 81.2386 1127.22 80.875 1126.05 80.1477C1124.89 79.4205 1123.98 78.3864 1123.33 77.0455C1122.68 75.7045 1122.35 74.1136 1122.35 72.2727C1122.35 70.892 1122.54 69.6506 1122.91 68.5483C1123.28 67.4403 1123.81 66.4972 1124.49 65.7188C1125.17 64.9403 1125.98 64.3438 1126.91 63.929C1127.85 63.5142 1128.87 63.3068 1129.99 63.3068C1130.91 63.3068 1131.77 63.446 1132.56 63.7244C1133.37 63.9972 1134.08 64.3864 1134.7 64.892C1135.33 65.392 1135.86 65.9915 1136.28 66.6903C1136.7 67.3835 1136.99 68.1534 1137.15 69H1134.97ZM1142.99 63.5455V81H1140.87V63.5455H1142.99ZM1161.06 63.5455V81H1159.02L1149.51 67.2955H1149.34V81H1147.22V63.5455H1149.27L1158.81 77.2841H1158.98V63.5455H1161.06Z" fill="black"/>
<path d="M272.672 56.5455H275.195L281.127 71.0341H281.331L287.263 56.5455H289.786V74H287.809V60.7386H287.638L282.184 74H280.275L274.82 60.7386H274.65V74H272.672V56.5455ZM294.024 74V56.5455H304.558V58.4205H296.137V64.3182H304.012V66.1932H296.137V72.125H304.694V74H294.024ZM317.913 60.9091C317.811 60.0455 317.396 59.375 316.669 58.8977C315.941 58.4205 315.049 58.1818 313.993 58.1818C313.22 58.1818 312.544 58.3068 311.964 58.5568C311.39 58.8068 310.941 59.1506 310.618 59.5881C310.299 60.0256 310.14 60.5227 310.14 61.0795C310.14 61.5455 310.251 61.946 310.473 62.2812C310.7 62.6108 310.99 62.8864 311.342 63.108C311.694 63.3239 312.064 63.5028 312.45 63.6449C312.836 63.7812 313.191 63.892 313.515 63.9773L315.288 64.4545C315.743 64.5739 316.248 64.7386 316.805 64.9489C317.368 65.1591 317.904 65.446 318.416 65.8097C318.933 66.1676 319.359 66.6278 319.694 67.1903C320.029 67.7528 320.197 68.4432 320.197 69.2614C320.197 70.2045 319.95 71.0568 319.456 71.8182C318.967 72.5795 318.251 73.1847 317.308 73.6335C316.37 74.0824 315.231 74.3068 313.89 74.3068C312.64 74.3068 311.558 74.1051 310.643 73.7017C309.734 73.2983 309.018 72.7358 308.495 72.0142C307.978 71.2926 307.686 70.4545 307.618 69.5H309.799C309.856 70.1591 310.078 70.7045 310.464 71.1364C310.856 71.5625 311.35 71.8807 311.947 72.0909C312.549 72.2955 313.197 72.3977 313.89 72.3977C314.697 72.3977 315.422 72.267 316.064 72.0057C316.706 71.7386 317.214 71.3693 317.589 70.8977C317.964 70.4205 318.152 69.8636 318.152 69.2273C318.152 68.6477 317.99 68.1761 317.666 67.8125C317.342 67.4489 316.916 67.1534 316.387 66.9261C315.859 66.6989 315.288 66.5 314.674 66.3295L312.527 65.7159C311.163 65.3239 310.083 64.7642 309.288 64.0369C308.493 63.3097 308.095 62.358 308.095 61.1818C308.095 60.2045 308.359 59.3523 308.887 58.625C309.422 57.892 310.137 57.3239 311.035 56.9205C311.939 56.5114 312.947 56.3068 314.061 56.3068C315.186 56.3068 316.186 56.5085 317.061 56.9119C317.936 57.3097 318.629 57.8551 319.14 58.5483C319.657 59.2415 319.93 60.0284 319.958 60.9091H317.913ZM333.218 60.9091C333.115 60.0455 332.701 59.375 331.973 58.8977C331.246 58.4205 330.354 58.1818 329.297 58.1818C328.525 58.1818 327.848 58.3068 327.269 58.5568C326.695 58.8068 326.246 59.1506 325.922 59.5881C325.604 60.0256 325.445 60.5227 325.445 61.0795C325.445 61.5455 325.556 61.946 325.777 62.2812C326.005 62.6108 326.294 62.8864 326.647 63.108C326.999 63.3239 327.368 63.5028 327.755 63.6449C328.141 63.7812 328.496 63.892 328.82 63.9773L330.593 64.4545C331.047 64.5739 331.553 64.7386 332.11 64.9489C332.672 65.1591 333.209 65.446 333.721 65.8097C334.238 66.1676 334.664 66.6278 334.999 67.1903C335.334 67.7528 335.502 68.4432 335.502 69.2614C335.502 70.2045 335.255 71.0568 334.76 71.8182C334.272 72.5795 333.556 73.1847 332.613 73.6335C331.675 74.0824 330.536 74.3068 329.195 74.3068C327.945 74.3068 326.863 74.1051 325.948 73.7017C325.039 73.2983 324.323 72.7358 323.8 72.0142C323.283 71.2926 322.99 70.4545 322.922 69.5H325.104C325.161 70.1591 325.382 70.7045 325.769 71.1364C326.161 71.5625 326.655 71.8807 327.252 72.0909C327.854 72.2955 328.502 72.3977 329.195 72.3977C330.002 72.3977 330.726 72.267 331.368 72.0057C332.01 71.7386 332.519 71.3693 332.894 70.8977C333.269 70.4205 333.456 69.8636 333.456 69.2273C333.456 68.6477 333.294 68.1761 332.971 67.8125C332.647 67.4489 332.221 67.1534 331.692 66.9261C331.164 66.6989 330.593 66.5 329.979 66.3295L327.831 65.7159C326.468 65.3239 325.388 64.7642 324.593 64.0369C323.797 63.3097 323.4 62.358 323.4 61.1818C323.4 60.2045 323.664 59.3523 324.192 58.625C324.726 57.892 325.442 57.3239 326.34 56.9205C327.243 56.5114 328.252 56.3068 329.365 56.3068C330.49 56.3068 331.49 56.5085 332.365 56.9119C333.24 57.3097 333.934 57.8551 334.445 58.5483C334.962 59.2415 335.235 60.0284 335.263 60.9091H333.218ZM339.693 74H337.477L343.886 56.5455H346.068L352.477 74H350.261L345.045 59.3068H344.909L339.693 74ZM340.511 67.1818H349.443V69.0568H340.511V67.1818ZM366.307 62C366.12 61.4261 365.873 60.9119 365.566 60.4574C365.265 59.9972 364.904 59.6051 364.483 59.2812C364.069 58.9574 363.597 58.7102 363.069 58.5398C362.54 58.3693 361.961 58.2841 361.33 58.2841C360.296 58.2841 359.355 58.5511 358.509 59.0852C357.662 59.6193 356.989 60.4062 356.489 61.446C355.989 62.4858 355.739 63.7614 355.739 65.2727C355.739 66.7841 355.992 68.0597 356.498 69.0994C357.003 70.1392 357.688 70.9261 358.551 71.4602C359.415 71.9943 360.387 72.2614 361.466 72.2614C362.466 72.2614 363.347 72.0483 364.108 71.6222C364.875 71.1903 365.472 70.5824 365.898 69.7983C366.33 69.0085 366.546 68.0795 366.546 67.0114L367.194 67.1477H361.944V65.2727H368.591V67.1477C368.591 68.5852 368.284 69.8352 367.671 70.8977C367.063 71.9602 366.222 72.7841 365.148 73.3693C364.08 73.9489 362.853 74.2386 361.466 74.2386C359.921 74.2386 358.563 73.875 357.392 73.1477C356.228 72.4205 355.319 71.3864 354.665 70.0455C354.017 68.7045 353.694 67.1136 353.694 65.2727C353.694 63.892 353.878 62.6506 354.248 61.5483C354.623 60.4403 355.151 59.4972 355.833 58.7188C356.515 57.9403 357.321 57.3438 358.253 56.929C359.185 56.5142 360.211 56.3068 361.33 56.3068C362.25 56.3068 363.108 56.446 363.904 56.7244C364.705 56.9972 365.418 57.3864 366.043 57.892C366.674 58.392 367.199 58.9915 367.62 59.6903C368.04 60.3835 368.33 61.1534 368.489 62H366.307ZM372.211 74V56.5455H382.745V58.4205H374.325V64.3182H382.2V66.1932H374.325V72.125H382.882V74H372.211ZM293.743 103V85.5455H295.856V93.3182H305.163V85.5455H307.277V103H305.163V95.1932H295.856V103H293.743ZM326.235 94.2727C326.235 96.1136 325.903 97.7045 325.238 99.0455C324.574 100.386 323.662 101.42 322.502 102.148C321.343 102.875 320.02 103.239 318.531 103.239C317.042 103.239 315.718 102.875 314.559 102.148C313.4 101.42 312.488 100.386 311.824 99.0455C311.159 97.7045 310.826 96.1136 310.826 94.2727C310.826 92.4318 311.159 90.8409 311.824 89.5C312.488 88.1591 313.4 87.125 314.559 86.3977C315.718 85.6705 317.042 85.3068 318.531 85.3068C320.02 85.3068 321.343 85.6705 322.502 86.3977C323.662 87.125 324.574 88.1591 325.238 89.5C325.903 90.8409 326.235 92.4318 326.235 94.2727ZM324.19 94.2727C324.19 92.7614 323.937 91.4858 323.431 90.446C322.931 89.4062 322.252 88.6193 321.395 88.0852C320.542 87.5511 319.588 87.2841 318.531 87.2841C317.474 87.2841 316.517 87.5511 315.659 88.0852C314.806 88.6193 314.127 89.4062 313.622 90.446C313.122 91.4858 312.872 92.7614 312.872 94.2727C312.872 95.7841 313.122 97.0597 313.622 98.0994C314.127 99.1392 314.806 99.9261 315.659 100.46C316.517 100.994 317.474 101.261 318.531 101.261C319.588 101.261 320.542 100.994 321.395 100.46C322.252 99.9261 322.931 99.1392 323.431 98.0994C323.937 97.0597 324.19 95.7841 324.19 94.2727ZM329.789 85.5455H332.312L338.244 100.034H338.449L344.38 85.5455H346.903V103H344.926V89.7386H344.755L339.301 103H337.392L331.937 89.7386H331.767V103H329.789V85.5455ZM351.141 103V85.5455H361.675V87.4205H353.255V93.3182H361.13V95.1932H353.255V101.125H361.811V103H351.141Z" fill="black"/>
<path d="M64.0043 88V70.5455H66.1179V86.125H74.2315V88H64.0043ZM91.5518 79.2727C91.5518 81.1136 91.2195 82.7045 90.5547 84.0455C89.8899 85.3864 88.978 86.4205 87.8189 87.1477C86.6598 87.875 85.3359 88.2386 83.8473 88.2386C82.3587 88.2386 81.0348 87.875 79.8757 87.1477C78.7166 86.4205 77.8047 85.3864 77.1399 84.0455C76.4751 82.7045 76.1428 81.1136 76.1428 79.2727C76.1428 77.4318 76.4751 75.8409 77.1399 74.5C77.8047 73.1591 78.7166 72.125 79.8757 71.3977C81.0348 70.6705 82.3587 70.3068 83.8473 70.3068C85.3359 70.3068 86.6598 70.6705 87.8189 71.3977C88.978 72.125 89.8899 73.1591 90.5547 74.5C91.2195 75.8409 91.5518 77.4318 91.5518 79.2727ZM89.5064 79.2727C89.5064 77.7614 89.2536 76.4858 88.7479 75.446C88.2479 74.4062 87.5689 73.6193 86.7109 73.0852C85.8587 72.5511 84.9041 72.2841 83.8473 72.2841C82.7905 72.2841 81.8331 72.5511 80.9751 73.0852C80.1229 73.6193 79.4439 74.4062 78.9382 75.446C78.4382 76.4858 78.1882 77.7614 78.1882 79.2727C78.1882 80.7841 78.4382 82.0597 78.9382 83.0994C79.4439 84.1392 80.1229 84.9261 80.9751 85.4602C81.8331 85.9943 82.7905 86.2614 83.8473 86.2614C84.9041 86.2614 85.8587 85.9943 86.7109 85.4602C87.5689 84.9261 88.2479 84.1392 88.7479 83.0994C89.2536 82.0597 89.5064 80.7841 89.5064 79.2727ZM107.038 76C106.85 75.4261 106.603 74.9119 106.296 74.4574C105.995 73.9972 105.634 73.6051 105.214 73.2812C104.799 72.9574 104.327 72.7102 103.799 72.5398C103.271 72.3693 102.691 72.2841 102.06 72.2841C101.026 72.2841 100.086 72.5511 99.2393 73.0852C98.3928 73.6193 97.7195 74.4062 97.2195 75.446C96.7195 76.4858 96.4695 77.7614 96.4695 79.2727C96.4695 80.7841 96.7223 82.0597 97.228 83.0994C97.7337 84.1392 98.4183 84.9261 99.282 85.4602C100.146 85.9943 101.117 86.2614 102.197 86.2614C103.197 86.2614 104.077 86.0483 104.839 85.6222C105.606 85.1903 106.202 84.5824 106.629 83.7983C107.06 83.0085 107.276 82.0795 107.276 81.0114L107.924 81.1477H102.674V79.2727H109.322V81.1477C109.322 82.5852 109.015 83.8352 108.401 84.8977C107.793 85.9602 106.952 86.7841 105.879 87.3693C104.81 87.9489 103.583 88.2386 102.197 88.2386C100.651 88.2386 99.2933 87.875 98.1229 87.1477C96.9581 86.4205 96.049 85.3864 95.3956 84.0455C94.7479 82.7045 94.424 81.1136 94.424 79.2727C94.424 77.892 94.6087 76.6506 94.978 75.5483C95.353 74.4403 95.8814 73.4972 96.5632 72.7188C97.245 71.9403 98.0518 71.3438 98.9837 70.929C99.9155 70.5142 100.941 70.3068 102.06 70.3068C102.981 70.3068 103.839 70.446 104.634 70.7244C105.435 70.9972 106.148 71.3864 106.773 71.892C107.404 72.392 107.93 72.9915 108.35 73.6903C108.771 74.3835 109.06 75.1534 109.219 76H107.038ZM127.669 79.2727C127.669 81.1136 127.337 82.7045 126.672 84.0455C126.007 85.3864 125.095 86.4205 123.936 87.1477C122.777 87.875 121.453 88.2386 119.964 88.2386C118.476 88.2386 117.152 87.875 115.993 87.1477C114.834 86.4205 113.922 85.3864 113.257 84.0455C112.592 82.7045 112.26 81.1136 112.26 79.2727C112.26 77.4318 112.592 75.8409 113.257 74.5C113.922 73.1591 114.834 72.125 115.993 71.3977C117.152 70.6705 118.476 70.3068 119.964 70.3068C121.453 70.3068 122.777 70.6705 123.936 71.3977C125.095 72.125 126.007 73.1591 126.672 74.5C127.337 75.8409 127.669 77.4318 127.669 79.2727ZM125.624 79.2727C125.624 77.7614 125.371 76.4858 124.865 75.446C124.365 74.4062 123.686 73.6193 122.828 73.0852C121.976 72.5511 121.021 72.2841 119.964 72.2841C118.908 72.2841 117.95 72.5511 117.092 73.0852C116.24 73.6193 115.561 74.4062 115.055 75.446C114.555 76.4858 114.305 77.7614 114.305 79.2727C114.305 80.7841 114.555 82.0597 115.055 83.0994C115.561 84.1392 116.24 84.9261 117.092 85.4602C117.95 85.9943 118.908 86.2614 119.964 86.2614C121.021 86.2614 121.976 85.9943 122.828 85.4602C123.686 84.9261 124.365 84.1392 124.865 83.0994C125.371 82.0597 125.624 80.7841 125.624 79.2727Z" fill="black"/>
<rect x="185.5" y="0.5" width="1008" height="730" stroke="black"/>
<rect x="185.5" y="730.5" width="1008" height="102" stroke="black"/>
<path d="M636.473 405V387.545H642.575C643.791 387.545 644.794 387.756 645.584 388.176C646.374 388.591 646.962 389.151 647.348 389.855C647.734 390.554 647.928 391.33 647.928 392.182C647.928 392.932 647.794 393.551 647.527 394.04C647.266 394.528 646.919 394.915 646.487 395.199C646.061 395.483 645.598 395.693 645.098 395.83V396C645.632 396.034 646.169 396.222 646.709 396.562C647.249 396.903 647.7 397.392 648.064 398.028C648.428 398.665 648.609 399.443 648.609 400.364C648.609 401.239 648.411 402.026 648.013 402.724C647.615 403.423 646.987 403.977 646.129 404.386C645.271 404.795 644.155 405 642.78 405H636.473ZM638.587 403.125H642.78C644.161 403.125 645.141 402.858 645.72 402.324C646.305 401.784 646.598 401.131 646.598 400.364C646.598 399.773 646.447 399.227 646.146 398.727C645.845 398.222 645.416 397.818 644.859 397.517C644.303 397.21 643.643 397.057 642.882 397.057H638.587V403.125ZM638.587 395.216H642.507C643.143 395.216 643.717 395.091 644.229 394.841C644.746 394.591 645.155 394.239 645.456 393.784C645.763 393.33 645.916 392.795 645.916 392.182C645.916 391.415 645.649 390.764 645.115 390.23C644.581 389.69 643.734 389.42 642.575 389.42H638.587V395.216ZM666.81 396.273C666.81 398.114 666.477 399.705 665.812 401.045C665.148 402.386 664.236 403.42 663.077 404.148C661.918 404.875 660.594 405.239 659.105 405.239C657.616 405.239 656.293 404.875 655.134 404.148C653.974 403.42 653.063 402.386 652.398 401.045C651.733 399.705 651.401 398.114 651.401 396.273C651.401 394.432 651.733 392.841 652.398 391.5C653.063 390.159 653.974 389.125 655.134 388.398C656.293 387.67 657.616 387.307 659.105 387.307C660.594 387.307 661.918 387.67 663.077 388.398C664.236 389.125 665.148 390.159 665.812 391.5C666.477 392.841 666.81 394.432 666.81 396.273ZM664.764 396.273C664.764 394.761 664.511 393.486 664.006 392.446C663.506 391.406 662.827 390.619 661.969 390.085C661.116 389.551 660.162 389.284 659.105 389.284C658.048 389.284 657.091 389.551 656.233 390.085C655.381 390.619 654.702 391.406 654.196 392.446C653.696 393.486 653.446 394.761 653.446 396.273C653.446 397.784 653.696 399.06 654.196 400.099C654.702 401.139 655.381 401.926 656.233 402.46C657.091 402.994 658.048 403.261 659.105 403.261C660.162 403.261 661.116 402.994 661.969 402.46C662.827 401.926 663.506 401.139 664.006 400.099C664.511 399.06 664.764 397.784 664.764 396.273ZM675.75 405H670.364V387.545H675.989C677.682 387.545 679.131 387.895 680.335 388.594C681.54 389.287 682.463 390.284 683.105 391.585C683.747 392.881 684.068 394.432 684.068 396.239C684.068 398.057 683.744 399.622 683.097 400.935C682.449 402.241 681.506 403.247 680.267 403.952C679.028 404.651 677.523 405 675.75 405ZM672.477 403.125H675.614C677.057 403.125 678.253 402.847 679.202 402.29C680.151 401.733 680.858 400.94 681.324 399.912C681.79 398.884 682.023 397.659 682.023 396.239C682.023 394.83 681.793 393.616 681.332 392.599C680.872 391.577 680.185 390.793 679.27 390.247C678.355 389.696 677.216 389.42 675.852 389.42H672.477V403.125ZM685.293 387.545H687.714L692.555 395.693H692.759L697.6 387.545H700.021L693.714 397.807V405H691.6V397.807L685.293 387.545Z" fill="black"/>
<path d="M551.606 791V773.545H562.072V775.42H553.719V781.318H561.288V783.193H553.719V791H551.606ZM580.419 782.273C580.419 784.114 580.087 785.705 579.422 787.045C578.757 788.386 577.845 789.42 576.686 790.148C575.527 790.875 574.203 791.239 572.714 791.239C571.226 791.239 569.902 790.875 568.743 790.148C567.584 789.42 566.672 788.386 566.007 787.045C565.342 785.705 565.01 784.114 565.01 782.273C565.01 780.432 565.342 778.841 566.007 777.5C566.672 776.159 567.584 775.125 568.743 774.398C569.902 773.67 571.226 773.307 572.714 773.307C574.203 773.307 575.527 773.67 576.686 774.398C577.845 775.125 578.757 776.159 579.422 777.5C580.087 778.841 580.419 780.432 580.419 782.273ZM578.374 782.273C578.374 780.761 578.121 779.486 577.615 778.446C577.115 777.406 576.436 776.619 575.578 776.085C574.726 775.551 573.771 775.284 572.714 775.284C571.658 775.284 570.7 775.551 569.842 776.085C568.99 776.619 568.311 777.406 567.805 778.446C567.305 779.486 567.055 780.761 567.055 782.273C567.055 783.784 567.305 785.06 567.805 786.099C568.311 787.139 568.99 787.926 569.842 788.46C570.7 788.994 571.658 789.261 572.714 789.261C573.771 789.261 574.726 788.994 575.578 788.46C576.436 787.926 577.115 787.139 577.615 786.099C578.121 785.06 578.374 783.784 578.374 782.273ZM598.7 782.273C598.7 784.114 598.368 785.705 597.703 787.045C597.038 788.386 596.126 789.42 594.967 790.148C593.808 790.875 592.484 791.239 590.996 791.239C589.507 791.239 588.183 790.875 587.024 790.148C585.865 789.42 584.953 788.386 584.288 787.045C583.624 785.705 583.291 784.114 583.291 782.273C583.291 780.432 583.624 778.841 584.288 777.5C584.953 776.159 585.865 775.125 587.024 774.398C588.183 773.67 589.507 773.307 590.996 773.307C592.484 773.307 593.808 773.67 594.967 774.398C596.126 775.125 597.038 776.159 597.703 777.5C598.368 778.841 598.7 780.432 598.7 782.273ZM596.655 782.273C596.655 780.761 596.402 779.486 595.896 778.446C595.396 777.406 594.717 776.619 593.859 776.085C593.007 775.551 592.053 775.284 590.996 775.284C589.939 775.284 588.982 775.551 588.124 776.085C587.271 776.619 586.592 777.406 586.087 778.446C585.587 779.486 585.337 780.761 585.337 782.273C585.337 783.784 585.587 785.06 586.087 786.099C586.592 787.139 587.271 787.926 588.124 788.46C588.982 788.994 589.939 789.261 590.996 789.261C592.053 789.261 593.007 788.994 593.859 788.46C594.717 787.926 595.396 787.139 595.896 786.099C596.402 785.06 596.655 783.784 596.655 782.273ZM600.573 775.42V773.545H613.664V775.42H608.175V791H606.062V775.42H600.573ZM616.926 791V773.545H627.46V775.42H619.04V781.318H626.915V783.193H619.04V789.125H627.597V791H616.926ZM631.27 791V773.545H637.168C638.531 773.545 639.651 773.778 640.526 774.244C641.401 774.705 642.048 775.338 642.469 776.145C642.889 776.952 643.099 777.869 643.099 778.898C643.099 779.926 642.889 780.838 642.469 781.634C642.048 782.429 641.403 783.054 640.534 783.509C639.665 783.957 638.554 784.182 637.202 784.182H632.429V782.273H637.134C638.065 782.273 638.815 782.136 639.384 781.864C639.957 781.591 640.372 781.205 640.628 780.705C640.889 780.199 641.02 779.597 641.02 778.898C641.02 778.199 640.889 777.588 640.628 777.065C640.366 776.543 639.949 776.139 639.375 775.855C638.801 775.565 638.043 775.42 637.099 775.42H633.384V791H631.27ZM639.486 783.159L643.781 791H641.327L637.099 783.159H639.486Z" fill="black"/>
<path d="M49.8832 186.545H52.4059L58.3377 201.034H58.5423L64.4741 186.545H66.9968V204H65.0195V190.739H64.8491L59.3945 204H57.4854L52.0309 190.739H51.8604V204H49.8832V186.545ZM71.2347 204V186.545H81.7688V188.42H73.3484V194.318H81.2234V196.193H73.3484V202.125H81.9052V204H71.2347ZM99.4194 186.545V204H97.3739L87.8626 190.295H87.6921V204H85.5785V186.545H87.6239L97.1694 200.284H97.3398V186.545H99.4194ZM115.103 186.545H117.217V198.102C117.217 199.295 116.936 200.361 116.373 201.298C115.816 202.23 115.029 202.966 114.012 203.506C112.995 204.04 111.802 204.307 110.433 204.307C109.064 204.307 107.87 204.04 106.853 203.506C105.836 202.966 105.047 202.23 104.484 201.298C103.927 200.361 103.649 199.295 103.649 198.102V186.545H105.762V197.932C105.762 198.784 105.95 199.543 106.325 200.207C106.7 200.866 107.234 201.386 107.927 201.767C108.626 202.142 109.461 202.33 110.433 202.33C111.404 202.33 112.24 202.142 112.939 201.767C113.637 201.386 114.172 200.866 114.541 200.207C114.916 199.543 115.103 198.784 115.103 197.932V186.545ZM134.017 186.545V204H131.904V188.761H131.801L127.54 191.591V189.443L131.904 186.545H134.017Z" fill="black"/>
<path d="M49.1957 337.545H51.7184L57.6502 352.034H57.8548L63.7866 337.545H66.3093V355H64.332V341.739H64.1616L58.707 355H56.7979L51.3434 341.739H51.1729V355H49.1957V337.545ZM70.5472 355V337.545H81.0813V339.42H72.6609V345.318H80.5359V347.193H72.6609V353.125H81.2177V355H70.5472ZM98.7319 337.545V355H96.6864L87.1751 341.295H87.0046V355H84.891V337.545H86.9364L96.4819 351.284H96.6523V337.545H98.7319ZM114.416 337.545H116.529V349.102C116.529 350.295 116.248 351.361 115.686 352.298C115.129 353.23 114.342 353.966 113.325 354.506C112.308 355.04 111.115 355.307 109.745 355.307C108.376 355.307 107.183 355.04 106.166 354.506C105.149 353.966 104.359 353.23 103.797 352.298C103.24 351.361 102.961 350.295 102.961 349.102V337.545H105.075V348.932C105.075 349.784 105.262 350.543 105.637 351.207C106.012 351.866 106.547 352.386 107.24 352.767C107.939 353.142 108.774 353.33 109.745 353.33C110.717 353.33 111.552 353.142 112.251 352.767C112.95 352.386 113.484 351.866 113.853 351.207C114.228 350.543 114.416 349.784 114.416 348.932V337.545ZM127.194 355V353.466L132.955 347.159C133.631 346.42 134.188 345.778 134.625 345.233C135.063 344.682 135.387 344.165 135.597 343.682C135.813 343.193 135.921 342.682 135.921 342.148C135.921 341.534 135.773 341.003 135.478 340.554C135.188 340.105 134.79 339.759 134.284 339.514C133.779 339.27 133.211 339.148 132.58 339.148C131.909 339.148 131.324 339.287 130.824 339.565C130.33 339.838 129.946 340.222 129.674 340.716C129.407 341.21 129.273 341.79 129.273 342.455H127.262C127.262 341.432 127.498 340.534 127.969 339.761C128.441 338.989 129.083 338.386 129.895 337.955C130.713 337.523 131.631 337.307 132.648 337.307C133.671 337.307 134.577 337.523 135.367 337.955C136.157 338.386 136.776 338.969 137.225 339.702C137.674 340.435 137.898 341.25 137.898 342.148C137.898 342.79 137.782 343.418 137.549 344.031C137.321 344.639 136.924 345.318 136.355 346.068C135.793 346.812 135.012 347.722 134.012 348.795L130.091 352.989V353.125H138.205V355H127.194Z" fill="black"/>
<path d="M824.998 62.5455V80H822.952L813.441 66.2955H813.27V80H811.157V62.5455H813.202L822.748 76.2841H822.918V62.5455H824.998ZM829.943 80H827.727L834.136 62.5455H836.318L842.727 80H840.511L835.295 65.3068H835.159L829.943 80ZM830.761 73.1818H839.693V75.0568H830.761V73.1818ZM844.521 62.5455L849.703 77.2386H849.907L855.089 62.5455H857.305L850.896 80H848.714L842.305 62.5455H844.521ZM868.887 62.5455V80H866.774V62.5455H868.887ZM886.966 62.5455V80H884.921L875.409 66.2955H875.239V80H873.125V62.5455H875.171L884.716 76.2841H884.887V62.5455H886.966ZM897.946 80V62.5455H904.048C905.264 62.5455 906.267 62.7557 907.056 63.1761C907.846 63.5909 908.434 64.1506 908.821 64.8551C909.207 65.554 909.4 66.3295 909.4 67.1818C909.4 67.9318 909.267 68.5511 909 69.0398C908.738 69.5284 908.392 69.9148 907.96 70.1989C907.534 70.483 907.071 70.6932 906.571 70.8295V71C907.105 71.0341 907.642 71.2216 908.181 71.5625C908.721 71.9034 909.173 72.392 909.537 73.0284C909.9 73.6648 910.082 74.4432 910.082 75.3636C910.082 76.2386 909.883 77.0256 909.485 77.7244C909.088 78.4233 908.46 78.9773 907.602 79.3864C906.744 79.7955 905.627 80 904.252 80H897.946ZM900.059 78.125H904.252C905.633 78.125 906.613 77.858 907.193 77.3239C907.778 76.7841 908.071 76.1307 908.071 75.3636C908.071 74.7727 907.92 74.2273 907.619 73.7273C907.318 73.2216 906.889 72.8182 906.332 72.517C905.775 72.2102 905.116 72.0568 904.355 72.0568H900.059V78.125ZM900.059 70.2159H903.98C904.616 70.2159 905.19 70.0909 905.701 69.8409C906.218 69.5909 906.627 69.2386 906.929 68.7841C907.235 68.3295 907.389 67.7955 907.389 67.1818C907.389 66.4148 907.122 65.7642 906.588 65.2301C906.054 64.6903 905.207 64.4205 904.048 64.4205H900.059V70.2159ZM925.01 62.5455H927.123V74.1023C927.123 75.2955 926.842 76.3608 926.279 77.2983C925.723 78.2301 924.936 78.9659 923.919 79.5057C922.902 80.0398 921.708 80.3068 920.339 80.3068C918.97 80.3068 917.777 80.0398 916.76 79.5057C915.743 78.9659 914.953 78.2301 914.39 77.2983C913.833 76.3608 913.555 75.2955 913.555 74.1023V62.5455H915.669V73.9318C915.669 74.7841 915.856 75.5426 916.231 76.2074C916.606 76.8665 917.14 77.3864 917.833 77.767C918.532 78.142 919.368 78.3295 920.339 78.3295C921.311 78.3295 922.146 78.142 922.845 77.767C923.544 77.3864 924.078 76.8665 924.447 76.2074C924.822 75.5426 925.01 74.7841 925.01 73.9318V62.5455ZM930.39 64.4205V62.5455H943.48V64.4205H937.992V80H935.878V64.4205H930.39ZM945.788 64.4205V62.5455H958.879V64.4205H953.39V80H951.277V64.4205H945.788ZM976.142 71.2727C976.142 73.1136 975.809 74.7045 975.145 76.0455C974.48 77.3864 973.568 78.4205 972.409 79.1477C971.25 79.875 969.926 80.2386 968.437 80.2386C966.949 80.2386 965.625 79.875 964.466 79.1477C963.306 78.4205 962.395 77.3864 961.73 76.0455C961.065 74.7045 960.733 73.1136 960.733 71.2727C960.733 69.4318 961.065 67.8409 961.73 66.5C962.395 65.1591 963.306 64.125 964.466 63.3977C965.625 62.6705 966.949 62.3068 968.437 62.3068C969.926 62.3068 971.25 62.6705 972.409 63.3977C973.568 64.125 974.48 65.1591 975.145 66.5C975.809 67.8409 976.142 69.4318 976.142 71.2727ZM974.096 71.2727C974.096 69.7614 973.843 68.4858 973.338 67.446C972.838 66.4062 972.159 65.6193 971.301 65.0852C970.449 64.5511 969.494 64.2841 968.437 64.2841C967.38 64.2841 966.423 64.5511 965.565 65.0852C964.713 65.6193 964.034 66.4062 963.528 67.446C963.028 68.4858 962.778 69.7614 962.778 71.2727C962.778 72.7841 963.028 74.0597 963.528 75.0994C964.034 76.1392 964.713 76.9261 965.565 77.4602C966.423 77.9943 967.38 78.2614 968.437 78.2614C969.494 78.2614 970.449 77.9943 971.301 77.4602C972.159 76.9261 972.838 76.1392 973.338 75.0994C973.843 74.0597 974.096 72.7841 974.096 71.2727ZM993.537 62.5455V80H991.491L981.98 66.2955H981.809V80H979.696V62.5455H981.741L991.287 76.2841H991.457V62.5455H993.537ZM1007.31 66.9091C1007.21 66.0455 1006.79 65.375 1006.07 64.8977C1005.34 64.4205 1004.45 64.1818 1003.39 64.1818C1002.62 64.1818 1001.94 64.3068 1001.36 64.5568C1000.79 64.8068 1000.34 65.1506 1000.02 65.5881C999.698 66.0256 999.539 66.5227 999.539 67.0795C999.539 67.5455 999.65 67.946 999.871 68.2812C1000.1 68.6108 1000.39 68.8864 1000.74 69.108C1001.09 69.3239 1001.46 69.5028 1001.85 69.6449C1002.23 69.7812 1002.59 69.892 1002.91 69.9773L1004.69 70.4545C1005.14 70.5739 1005.65 70.7386 1006.2 70.9489C1006.77 71.1591 1007.3 71.446 1007.81 71.8097C1008.33 72.1676 1008.76 72.6278 1009.09 73.1903C1009.43 73.7528 1009.6 74.4432 1009.6 75.2614C1009.6 76.2045 1009.35 77.0568 1008.85 77.8182C1008.37 78.5795 1007.65 79.1847 1006.71 79.6335C1005.77 80.0824 1004.63 80.3068 1003.29 80.3068C1002.04 80.3068 1000.96 80.1051 1000.04 79.7017C999.132 79.2983 998.417 78.7358 997.894 78.0142C997.377 77.2926 997.084 76.4545 997.016 75.5H999.198C999.255 76.1591 999.476 76.7045 999.863 77.1364C1000.25 77.5625 1000.75 77.8807 1001.35 78.0909C1001.95 78.2955 1002.6 78.3977 1003.29 78.3977C1004.1 78.3977 1004.82 78.267 1005.46 78.0057C1006.1 77.7386 1006.61 77.3693 1006.99 76.8977C1007.36 76.4205 1007.55 75.8636 1007.55 75.2273C1007.55 74.6477 1007.39 74.1761 1007.06 73.8125C1006.74 73.4489 1006.31 73.1534 1005.79 72.9261C1005.26 72.6989 1004.69 72.5 1004.07 72.3295L1001.93 71.7159C1000.56 71.3239 999.482 70.7642 998.686 70.0369C997.891 69.3097 997.493 68.358 997.493 67.1818C997.493 66.2045 997.757 65.3523 998.286 64.625C998.82 63.892 999.536 63.3239 1000.43 62.9205C1001.34 62.5114 1002.35 62.3068 1003.46 62.3068C1004.58 62.3068 1005.58 62.5085 1006.46 62.9119C1007.33 63.3097 1008.03 63.8551 1008.54 64.5483C1009.06 65.2415 1009.33 66.0284 1009.36 66.9091H1007.31Z" fill="black"/>
</g>
<g clip-path="url(#clip1_0_1)">
<rect width="460" height="852" transform="translate(1229)" fill="white"/>
<rect x="1229.5" y="1.5" width="459" height="130" stroke="black"/>
<rect x="1229.5" y="131.5" width="459" height="122" stroke="black"/>
<path d="M1301 74V56.5455H1303.12V72.125H1311.23V74H1301ZM1328.55 65.2727C1328.55 67.1136 1328.22 68.7045 1327.55 70.0455C1326.89 71.3864 1325.98 72.4205 1324.82 73.1477C1323.66 73.875 1322.34 74.2386 1320.85 74.2386C1319.36 74.2386 1318.03 73.875 1316.88 73.1477C1315.72 72.4205 1314.8 71.3864 1314.14 70.0455C1313.48 68.7045 1313.14 67.1136 1313.14 65.2727C1313.14 63.4318 1313.48 61.8409 1314.14 60.5C1314.8 59.1591 1315.72 58.125 1316.88 57.3977C1318.03 56.6705 1319.36 56.3068 1320.85 56.3068C1322.34 56.3068 1323.66 56.6705 1324.82 57.3977C1325.98 58.125 1326.89 59.1591 1327.55 60.5C1328.22 61.8409 1328.55 63.4318 1328.55 65.2727ZM1326.51 65.2727C1326.51 63.7614 1326.25 62.4858 1325.75 61.446C1325.25 60.4062 1324.57 59.6193 1323.71 59.0852C1322.86 58.5511 1321.9 58.2841 1320.85 58.2841C1319.79 58.2841 1318.83 58.5511 1317.98 59.0852C1317.12 59.6193 1316.44 60.4062 1315.94 61.446C1315.44 62.4858 1315.19 63.7614 1315.19 65.2727C1315.19 66.7841 1315.44 68.0597 1315.94 69.0994C1316.44 70.1392 1317.12 70.9261 1317.98 71.4602C1318.83 71.9943 1319.79 72.2614 1320.85 72.2614C1321.9 72.2614 1322.86 71.9943 1323.71 71.4602C1324.57 70.9261 1325.25 70.1392 1325.75 69.0994C1326.25 68.0597 1326.51 66.7841 1326.51 65.2727ZM1344.04 62C1343.85 61.4261 1343.6 60.9119 1343.3 60.4574C1343 59.9972 1342.63 59.6051 1342.21 59.2812C1341.8 58.9574 1341.33 58.7102 1340.8 58.5398C1340.27 58.3693 1339.69 58.2841 1339.06 58.2841C1338.03 58.2841 1337.09 58.5511 1336.24 59.0852C1335.39 59.6193 1334.72 60.4062 1334.22 61.446C1333.72 62.4858 1333.47 63.7614 1333.47 65.2727C1333.47 66.7841 1333.72 68.0597 1334.23 69.0994C1334.73 70.1392 1335.42 70.9261 1336.28 71.4602C1337.15 71.9943 1338.12 72.2614 1339.2 72.2614C1340.2 72.2614 1341.08 72.0483 1341.84 71.6222C1342.61 71.1903 1343.2 70.5824 1343.63 69.7983C1344.06 69.0085 1344.28 68.0795 1344.28 67.0114L1344.92 67.1477H1339.67V65.2727H1346.32V67.1477C1346.32 68.5852 1346.01 69.8352 1345.4 70.8977C1344.79 71.9602 1343.95 72.7841 1342.88 73.3693C1341.81 73.9489 1340.58 74.2386 1339.2 74.2386C1337.65 74.2386 1336.29 73.875 1335.12 73.1477C1333.96 72.4205 1333.05 71.3864 1332.4 70.0455C1331.75 68.7045 1331.42 67.1136 1331.42 65.2727C1331.42 63.892 1331.61 62.6506 1331.98 61.5483C1332.35 60.4403 1332.88 59.4972 1333.56 58.7188C1334.25 57.9403 1335.05 57.3438 1335.98 56.929C1336.92 56.5142 1337.94 56.3068 1339.06 56.3068C1339.98 56.3068 1340.84 56.446 1341.63 56.7244C1342.44 56.9972 1343.15 57.3864 1343.77 57.892C1344.4 58.392 1344.93 58.9915 1345.35 59.6903C1345.77 60.3835 1346.06 61.1534 1346.22 62H1344.04ZM1364.67 65.2727C1364.67 67.1136 1364.34 68.7045 1363.67 70.0455C1363.01 71.3864 1362.1 72.4205 1360.94 73.1477C1359.78 73.875 1358.45 74.2386 1356.96 74.2386C1355.48 74.2386 1354.15 73.875 1352.99 73.1477C1351.83 72.4205 1350.92 71.3864 1350.26 70.0455C1349.59 68.7045 1349.26 67.1136 1349.26 65.2727C1349.26 63.4318 1349.59 61.8409 1350.26 60.5C1350.92 59.1591 1351.83 58.125 1352.99 57.3977C1354.15 56.6705 1355.48 56.3068 1356.96 56.3068C1358.45 56.3068 1359.78 56.6705 1360.94 57.3977C1362.1 58.125 1363.01 59.1591 1363.67 60.5C1364.34 61.8409 1364.67 63.4318 1364.67 65.2727ZM1362.62 65.2727C1362.62 63.7614 1362.37 62.4858 1361.87 61.446C1361.37 60.4062 1360.69 59.6193 1359.83 59.0852C1358.98 58.5511 1358.02 58.2841 1356.96 58.2841C1355.91 58.2841 1354.95 58.5511 1354.09 59.0852C1353.24 59.6193 1352.56 60.4062 1352.06 61.446C1351.56 62.4858 1351.31 63.7614 1351.31 65.2727C1351.31 66.7841 1351.56 68.0597 1352.06 69.0994C1352.56 70.1392 1353.24 70.9261 1354.09 71.4602C1354.95 71.9943 1355.91 72.2614 1356.96 72.2614C1358.02 72.2614 1358.98 71.9943 1359.83 71.4602C1360.69 70.9261 1361.37 70.1392 1361.87 69.0994C1362.37 68.0597 1362.62 66.7841 1362.62 65.2727Z" fill="black"/>
<path d="M1521.16 94V76.5455H1527.27C1528.48 76.5455 1529.49 76.7557 1530.28 77.1761C1531.06 77.5909 1531.65 78.1506 1532.04 78.8551C1532.43 79.554 1532.62 80.3295 1532.62 81.1818C1532.62 81.9318 1532.49 82.5511 1532.22 83.0398C1531.96 83.5284 1531.61 83.9148 1531.18 84.1989C1530.75 84.483 1530.29 84.6932 1529.79 84.8295V85C1530.32 85.0341 1530.86 85.2216 1531.4 85.5625C1531.94 85.9034 1532.39 86.392 1532.76 87.0284C1533.12 87.6648 1533.3 88.4432 1533.3 89.3636C1533.3 90.2386 1533.1 91.0256 1532.7 91.7244C1532.31 92.4233 1531.68 92.9773 1530.82 93.3864C1529.96 93.7955 1528.85 94 1527.47 94H1521.16ZM1523.28 92.125H1527.47C1528.85 92.125 1529.83 91.858 1530.41 91.3239C1531 90.7841 1531.29 90.1307 1531.29 89.3636C1531.29 88.7727 1531.14 88.2273 1530.84 87.7273C1530.54 87.2216 1530.11 86.8182 1529.55 86.517C1528.99 86.2102 1528.33 86.0568 1527.57 86.0568H1523.28V92.125ZM1523.28 84.2159H1527.2C1527.83 84.2159 1528.41 84.0909 1528.92 83.8409C1529.44 83.5909 1529.85 83.2386 1530.15 82.7841C1530.45 82.3295 1530.61 81.7955 1530.61 81.1818C1530.61 80.4148 1530.34 79.7642 1529.81 79.2301C1529.27 78.6903 1528.43 78.4205 1527.27 78.4205H1523.28V84.2159ZM1548.23 76.5455H1550.34V88.1023C1550.34 89.2955 1550.06 90.3608 1549.5 91.2983C1548.94 92.2301 1548.15 92.9659 1547.14 93.5057C1546.12 94.0398 1544.93 94.3068 1543.56 94.3068C1542.19 94.3068 1541 94.0398 1539.98 93.5057C1538.96 92.9659 1538.17 92.2301 1537.61 91.2983C1537.05 90.3608 1536.77 89.2955 1536.77 88.1023V76.5455H1538.89V87.9318C1538.89 88.7841 1539.07 89.5426 1539.45 90.2074C1539.82 90.8665 1540.36 91.3864 1541.05 91.767C1541.75 92.142 1542.59 92.3295 1543.56 92.3295C1544.53 92.3295 1545.36 92.142 1546.06 91.767C1546.76 91.3864 1547.3 90.8665 1547.67 90.2074C1548.04 89.5426 1548.23 88.7841 1548.23 87.9318V76.5455ZM1554.56 94V76.5455H1560.46C1561.82 76.5455 1562.94 76.7784 1563.82 77.2443C1564.69 77.7045 1565.34 78.3381 1565.76 79.1449C1566.18 79.9517 1566.39 80.8693 1566.39 81.8977C1566.39 82.9261 1566.18 83.8381 1565.76 84.6335C1565.34 85.429 1564.7 86.054 1563.83 86.5085C1562.96 86.9574 1561.85 87.1818 1560.49 87.1818H1555.72V85.2727H1560.43C1561.36 85.2727 1562.11 85.1364 1562.68 84.8636C1563.25 84.5909 1563.67 84.2045 1563.92 83.7045C1564.18 83.1989 1564.31 82.5966 1564.31 81.8977C1564.31 81.1989 1564.18 80.5881 1563.92 80.0653C1563.66 79.5426 1563.24 79.1392 1562.67 78.8551C1562.09 78.5653 1561.34 78.4205 1560.39 78.4205H1556.68V94H1554.56ZM1562.78 86.1591L1567.07 94H1564.62L1560.39 86.1591H1562.78ZM1581.85 82C1581.66 81.4261 1581.41 80.9119 1581.1 80.4574C1580.8 79.9972 1580.44 79.6051 1580.02 79.2812C1579.61 78.9574 1579.14 78.7102 1578.61 78.5398C1578.08 78.3693 1577.5 78.2841 1576.87 78.2841C1575.83 78.2841 1574.89 78.5511 1574.05 79.0852C1573.2 79.6193 1572.53 80.4062 1572.03 81.446C1571.53 82.4858 1571.28 83.7614 1571.28 85.2727C1571.28 86.7841 1571.53 88.0597 1572.04 89.0994C1572.54 90.1392 1573.23 90.9261 1574.09 91.4602C1574.95 91.9943 1575.93 92.2614 1577.01 92.2614C1578.01 92.2614 1578.89 92.0483 1579.65 91.6222C1580.41 91.1903 1581.01 90.5824 1581.44 89.7983C1581.87 89.0085 1582.08 88.0795 1582.08 87.0114L1582.73 87.1477H1577.48V85.2727H1584.13V87.1477C1584.13 88.5852 1583.82 89.8352 1583.21 90.8977C1582.6 91.9602 1581.76 92.7841 1580.69 93.3693C1579.62 93.9489 1578.39 94.2386 1577.01 94.2386C1575.46 94.2386 1574.1 93.875 1572.93 93.1477C1571.77 92.4205 1570.86 91.3864 1570.2 90.0455C1569.56 88.7045 1569.23 87.1136 1569.23 85.2727C1569.23 83.892 1569.42 82.6506 1569.79 81.5483C1570.16 80.4403 1570.69 79.4972 1571.37 78.7188C1572.05 77.9403 1572.86 77.3438 1573.79 76.929C1574.72 76.5142 1575.75 76.3068 1576.87 76.3068C1577.79 76.3068 1578.65 76.446 1579.44 76.7244C1580.24 76.9972 1580.96 77.3864 1581.58 77.892C1582.21 78.392 1582.74 78.9915 1583.16 79.6903C1583.58 80.3835 1583.87 81.1534 1584.03 82H1581.85ZM1587.75 94V76.5455H1598.28V78.4205H1589.86V84.3182H1597.74V86.1932H1589.86V92.125H1598.42V94H1587.75ZM1602.09 94V76.5455H1607.99C1609.36 76.5455 1610.47 76.7784 1611.35 77.2443C1612.22 77.7045 1612.87 78.3381 1613.29 79.1449C1613.71 79.9517 1613.92 80.8693 1613.92 81.8977C1613.92 82.9261 1613.71 83.8381 1613.29 84.6335C1612.87 85.429 1612.23 86.054 1611.36 86.5085C1610.49 86.9574 1609.38 87.1818 1608.03 87.1818H1603.25V85.2727H1607.96C1608.89 85.2727 1609.64 85.1364 1610.21 84.8636C1610.78 84.5909 1611.2 84.2045 1611.45 83.7045C1611.71 83.1989 1611.84 82.5966 1611.84 81.8977C1611.84 81.1989 1611.71 80.5881 1611.45 80.0653C1611.19 79.5426 1610.77 79.1392 1610.2 78.8551C1609.63 78.5653 1608.87 78.4205 1607.92 78.4205H1604.21V94H1602.09ZM1610.31 86.1591L1614.61 94H1612.15L1607.92 86.1591H1610.31ZM1638.04 76.5455V94H1635.99L1626.48 80.2955H1626.31V94H1624.2V76.5455H1626.24L1635.79 90.2841H1635.96V76.5455H1638.04ZM1642.98 94H1640.77L1647.18 76.5455H1649.36L1655.77 94H1653.55L1648.33 79.3068H1648.2L1642.98 94ZM1643.8 87.1818H1652.73V89.0568H1643.8V87.1818ZM1657.56 76.5455L1662.74 91.2386H1662.95L1668.13 76.5455H1670.34L1663.94 94H1661.75L1655.34 76.5455H1657.56Z" fill="black"/>
<path d="M1587.43 50V32.5455H1589.55V48.125H1597.66V50H1587.43ZM1614.98 41.2727C1614.98 43.1136 1614.65 44.7045 1613.98 46.0455C1613.32 47.3864 1612.41 48.4205 1611.25 49.1477C1610.09 49.875 1608.77 50.2386 1607.28 50.2386C1605.79 50.2386 1604.46 49.875 1603.31 49.1477C1602.15 48.4205 1601.23 47.3864 1600.57 46.0455C1599.9 44.7045 1599.57 43.1136 1599.57 41.2727C1599.57 39.4318 1599.9 37.8409 1600.57 36.5C1601.23 35.1591 1602.15 34.125 1603.31 33.3977C1604.46 32.6705 1605.79 32.3068 1607.28 32.3068C1608.77 32.3068 1610.09 32.6705 1611.25 33.3977C1612.41 34.125 1613.32 35.1591 1613.98 36.5C1614.65 37.8409 1614.98 39.4318 1614.98 41.2727ZM1612.94 41.2727C1612.94 39.7614 1612.68 38.4858 1612.18 37.446C1611.68 36.4062 1611 35.6193 1610.14 35.0852C1609.29 34.5511 1608.33 34.2841 1607.28 34.2841C1606.22 34.2841 1605.26 34.5511 1604.4 35.0852C1603.55 35.6193 1602.87 36.4062 1602.37 37.446C1601.87 38.4858 1601.62 39.7614 1601.62 41.2727C1601.62 42.7841 1601.87 44.0597 1602.37 45.0994C1602.87 46.1392 1603.55 46.9261 1604.4 47.4602C1605.26 47.9943 1606.22 48.2614 1607.28 48.2614C1608.33 48.2614 1609.29 47.9943 1610.14 47.4602C1611 46.9261 1611.68 46.1392 1612.18 45.0994C1612.68 44.0597 1612.94 42.7841 1612.94 41.2727ZM1630.47 38C1630.28 37.4261 1630.03 36.9119 1629.73 36.4574C1629.42 35.9972 1629.06 35.6051 1628.64 35.2812C1628.23 34.9574 1627.76 34.7102 1627.23 34.5398C1626.7 34.3693 1626.12 34.2841 1625.49 34.2841C1624.46 34.2841 1623.52 34.5511 1622.67 35.0852C1621.82 35.6193 1621.15 36.4062 1620.65 37.446C1620.15 38.4858 1619.9 39.7614 1619.9 41.2727C1619.9 42.7841 1620.15 44.0597 1620.66 45.0994C1621.16 46.1392 1621.85 46.9261 1622.71 47.4602C1623.58 47.9943 1624.55 48.2614 1625.63 48.2614C1626.63 48.2614 1627.51 48.0483 1628.27 47.6222C1629.04 47.1903 1629.63 46.5824 1630.06 45.7983C1630.49 45.0085 1630.71 44.0795 1630.71 43.0114L1631.35 43.1477H1626.1V41.2727H1632.75V43.1477C1632.75 44.5852 1632.44 45.8352 1631.83 46.8977C1631.22 47.9602 1630.38 48.7841 1629.31 49.3693C1628.24 49.9489 1627.01 50.2386 1625.63 50.2386C1624.08 50.2386 1622.72 49.875 1621.55 49.1477C1620.39 48.4205 1619.48 47.3864 1618.83 46.0455C1618.18 44.7045 1617.85 43.1136 1617.85 41.2727C1617.85 39.892 1618.04 38.6506 1618.41 37.5483C1618.78 36.4403 1619.31 35.4972 1619.99 34.7188C1620.67 33.9403 1621.48 33.3438 1622.41 32.929C1623.35 32.5142 1624.37 32.3068 1625.49 32.3068C1626.41 32.3068 1627.27 32.446 1628.06 32.7244C1628.87 32.9972 1629.58 33.3864 1630.2 33.892C1630.83 34.392 1631.36 34.9915 1631.78 35.6903C1632.2 36.3835 1632.49 37.1534 1632.65 38H1630.47ZM1638.49 32.5455V50H1636.37V32.5455H1638.49ZM1656.56 32.5455V50H1654.52L1645.01 36.2955H1644.84V50H1642.72V32.5455H1644.77L1654.31 46.2841H1654.48V32.5455H1656.56Z" fill="black"/>
<rect x="1229.5" y="253.5" width="459" height="528" stroke="black"/>
<path d="M1430.47 473V455.545H1436.58C1437.79 455.545 1438.79 455.756 1439.58 456.176C1440.37 456.591 1440.96 457.151 1441.35 457.855C1441.73 458.554 1441.93 459.33 1441.93 460.182C1441.93 460.932 1441.79 461.551 1441.53 462.04C1441.27 462.528 1440.92 462.915 1440.49 463.199C1440.06 463.483 1439.6 463.693 1439.1 463.83V464C1439.63 464.034 1440.17 464.222 1440.71 464.562C1441.25 464.903 1441.7 465.392 1442.06 466.028C1442.43 466.665 1442.61 467.443 1442.61 468.364C1442.61 469.239 1442.41 470.026 1442.01 470.724C1441.62 471.423 1440.99 471.977 1440.13 472.386C1439.27 472.795 1438.15 473 1436.78 473H1430.47ZM1432.59 471.125H1436.78C1438.16 471.125 1439.14 470.858 1439.72 470.324C1440.31 469.784 1440.6 469.131 1440.6 468.364C1440.6 467.773 1440.45 467.227 1440.15 466.727C1439.85 466.222 1439.42 465.818 1438.86 465.517C1438.3 465.21 1437.64 465.057 1436.88 465.057H1432.59V471.125ZM1432.59 463.216H1436.51C1437.14 463.216 1437.72 463.091 1438.23 462.841C1438.75 462.591 1439.15 462.239 1439.46 461.784C1439.76 461.33 1439.92 460.795 1439.92 460.182C1439.92 459.415 1439.65 458.764 1439.12 458.23C1438.58 457.69 1437.73 457.42 1436.58 457.42H1432.59V463.216ZM1460.81 464.273C1460.81 466.114 1460.48 467.705 1459.81 469.045C1459.15 470.386 1458.24 471.42 1457.08 472.148C1455.92 472.875 1454.59 473.239 1453.11 473.239C1451.62 473.239 1450.29 472.875 1449.13 472.148C1447.97 471.42 1447.06 470.386 1446.4 469.045C1445.73 467.705 1445.4 466.114 1445.4 464.273C1445.4 462.432 1445.73 460.841 1446.4 459.5C1447.06 458.159 1447.97 457.125 1449.13 456.398C1450.29 455.67 1451.62 455.307 1453.11 455.307C1454.59 455.307 1455.92 455.67 1457.08 456.398C1458.24 457.125 1459.15 458.159 1459.81 459.5C1460.48 460.841 1460.81 462.432 1460.81 464.273ZM1458.76 464.273C1458.76 462.761 1458.51 461.486 1458.01 460.446C1457.51 459.406 1456.83 458.619 1455.97 458.085C1455.12 457.551 1454.16 457.284 1453.11 457.284C1452.05 457.284 1451.09 457.551 1450.23 458.085C1449.38 458.619 1448.7 459.406 1448.2 460.446C1447.7 461.486 1447.45 462.761 1447.45 464.273C1447.45 465.784 1447.7 467.06 1448.2 468.099C1448.7 469.139 1449.38 469.926 1450.23 470.46C1451.09 470.994 1452.05 471.261 1453.11 471.261C1454.16 471.261 1455.12 470.994 1455.97 470.46C1456.83 469.926 1457.51 469.139 1458.01 468.099C1458.51 467.06 1458.76 465.784 1458.76 464.273ZM1469.75 473H1464.36V455.545H1469.99C1471.68 455.545 1473.13 455.895 1474.34 456.594C1475.54 457.287 1476.46 458.284 1477.11 459.585C1477.75 460.881 1478.07 462.432 1478.07 464.239C1478.07 466.057 1477.74 467.622 1477.1 468.935C1476.45 470.241 1475.51 471.247 1474.27 471.952C1473.03 472.651 1471.52 473 1469.75 473ZM1466.48 471.125H1469.61C1471.06 471.125 1472.25 470.847 1473.2 470.29C1474.15 469.733 1474.86 468.94 1475.32 467.912C1475.79 466.884 1476.02 465.659 1476.02 464.239C1476.02 462.83 1475.79 461.616 1475.33 460.599C1474.87 459.577 1474.18 458.793 1473.27 458.247C1472.36 457.696 1471.22 457.42 1469.85 457.42H1466.48V471.125ZM1479.29 455.545H1481.71L1486.55 463.693H1486.76L1491.6 455.545H1494.02L1487.71 465.807V473H1485.6V465.807L1479.29 455.545Z" fill="black"/>
<rect x="1229.5" y="781.5" width="459" height="70" stroke="black"/>
<path d="M1423.11 832V814.545H1433.57V816.42H1425.22V822.318H1432.79V824.193H1425.22V832H1423.11ZM1451.92 823.273C1451.92 825.114 1451.59 826.705 1450.92 828.045C1450.26 829.386 1449.35 830.42 1448.19 831.148C1447.03 831.875 1445.7 832.239 1444.21 832.239C1442.73 832.239 1441.4 831.875 1440.24 831.148C1439.08 830.42 1438.17 829.386 1437.51 828.045C1436.84 826.705 1436.51 825.114 1436.51 823.273C1436.51 821.432 1436.84 819.841 1437.51 818.5C1438.17 817.159 1439.08 816.125 1440.24 815.398C1441.4 814.67 1442.73 814.307 1444.21 814.307C1445.7 814.307 1447.03 814.67 1448.19 815.398C1449.35 816.125 1450.26 817.159 1450.92 818.5C1451.59 819.841 1451.92 821.432 1451.92 823.273ZM1449.87 823.273C1449.87 821.761 1449.62 820.486 1449.12 819.446C1448.62 818.406 1447.94 817.619 1447.08 817.085C1446.23 816.551 1445.27 816.284 1444.21 816.284C1443.16 816.284 1442.2 816.551 1441.34 817.085C1440.49 817.619 1439.81 818.406 1439.31 819.446C1438.81 820.486 1438.56 821.761 1438.56 823.273C1438.56 824.784 1438.81 826.06 1439.31 827.099C1439.81 828.139 1440.49 828.926 1441.34 829.46C1442.2 829.994 1443.16 830.261 1444.21 830.261C1445.27 830.261 1446.23 829.994 1447.08 829.46C1447.94 828.926 1448.62 828.139 1449.12 827.099C1449.62 826.06 1449.87 824.784 1449.87 823.273ZM1470.2 823.273C1470.2 825.114 1469.87 826.705 1469.2 828.045C1468.54 829.386 1467.63 830.42 1466.47 831.148C1465.31 831.875 1463.98 832.239 1462.5 832.239C1461.01 832.239 1459.68 831.875 1458.52 831.148C1457.37 830.42 1456.45 829.386 1455.79 828.045C1455.12 826.705 1454.79 825.114 1454.79 823.273C1454.79 821.432 1455.12 819.841 1455.79 818.5C1456.45 817.159 1457.37 816.125 1458.52 815.398C1459.68 814.67 1461.01 814.307 1462.5 814.307C1463.98 814.307 1465.31 814.67 1466.47 815.398C1467.63 816.125 1468.54 817.159 1469.2 818.5C1469.87 819.841 1470.2 821.432 1470.2 823.273ZM1468.15 823.273C1468.15 821.761 1467.9 820.486 1467.4 819.446C1466.9 818.406 1466.22 817.619 1465.36 817.085C1464.51 816.551 1463.55 816.284 1462.5 816.284C1461.44 816.284 1460.48 816.551 1459.62 817.085C1458.77 817.619 1458.09 818.406 1457.59 819.446C1457.09 820.486 1456.84 821.761 1456.84 823.273C1456.84 824.784 1457.09 826.06 1457.59 827.099C1458.09 828.139 1458.77 828.926 1459.62 829.46C1460.48 829.994 1461.44 830.261 1462.5 830.261C1463.55 830.261 1464.51 829.994 1465.36 829.46C1466.22 828.926 1466.9 828.139 1467.4 827.099C1467.9 826.06 1468.15 824.784 1468.15 823.273ZM1472.07 816.42V814.545H1485.16V816.42H1479.68V832H1477.56V816.42H1472.07ZM1488.43 832V814.545H1498.96V816.42H1490.54V822.318H1498.41V824.193H1490.54V830.125H1499.1V832H1488.43ZM1502.77 832V814.545H1508.67C1510.03 814.545 1511.15 814.778 1512.03 815.244C1512.9 815.705 1513.55 816.338 1513.97 817.145C1514.39 817.952 1514.6 818.869 1514.6 819.898C1514.6 820.926 1514.39 821.838 1513.97 822.634C1513.55 823.429 1512.9 824.054 1512.03 824.509C1511.16 824.957 1510.05 825.182 1508.7 825.182H1503.93V823.273H1508.63C1509.57 823.273 1510.32 823.136 1510.88 822.864C1511.46 822.591 1511.87 822.205 1512.13 821.705C1512.39 821.199 1512.52 820.597 1512.52 819.898C1512.52 819.199 1512.39 818.588 1512.13 818.065C1511.87 817.543 1511.45 817.139 1510.88 816.855C1510.3 816.565 1509.54 816.42 1508.6 816.42H1504.88V832H1502.77ZM1510.99 824.159L1515.28 832H1512.83L1508.6 824.159H1510.99Z" fill="black"/>
<path d="M1403.67 174.545H1406.19L1412.13 189.034H1412.33L1418.26 174.545H1420.79V192H1418.81V178.739H1418.64L1413.18 192H1411.27L1405.82 178.739H1405.65V192H1403.67V174.545ZM1425.02 192V174.545H1435.56V176.42H1427.14V182.318H1435.01V184.193H1427.14V190.125H1435.69V192H1425.02ZM1448.91 178.909C1448.81 178.045 1448.4 177.375 1447.67 176.898C1446.94 176.42 1446.05 176.182 1444.99 176.182C1444.22 176.182 1443.54 176.307 1442.96 176.557C1442.39 176.807 1441.94 177.151 1441.62 177.588C1441.3 178.026 1441.14 178.523 1441.14 179.08C1441.14 179.545 1441.25 179.946 1441.47 180.281C1441.7 180.611 1441.99 180.886 1442.34 181.108C1442.69 181.324 1443.06 181.503 1443.45 181.645C1443.84 181.781 1444.19 181.892 1444.52 181.977L1446.29 182.455C1446.74 182.574 1447.25 182.739 1447.81 182.949C1448.37 183.159 1448.9 183.446 1449.42 183.81C1449.93 184.168 1450.36 184.628 1450.69 185.19C1451.03 185.753 1451.2 186.443 1451.2 187.261C1451.2 188.205 1450.95 189.057 1450.46 189.818C1449.97 190.58 1449.25 191.185 1448.31 191.634C1447.37 192.082 1446.23 192.307 1444.89 192.307C1443.64 192.307 1442.56 192.105 1441.64 191.702C1440.73 191.298 1440.02 190.736 1439.5 190.014C1438.98 189.293 1438.69 188.455 1438.62 187.5H1440.8C1440.86 188.159 1441.08 188.705 1441.46 189.136C1441.86 189.562 1442.35 189.881 1442.95 190.091C1443.55 190.295 1444.2 190.398 1444.89 190.398C1445.7 190.398 1446.42 190.267 1447.06 190.006C1447.71 189.739 1448.21 189.369 1448.59 188.898C1448.96 188.42 1449.15 187.864 1449.15 187.227C1449.15 186.648 1448.99 186.176 1448.67 185.812C1448.34 185.449 1447.92 185.153 1447.39 184.926C1446.86 184.699 1446.29 184.5 1445.67 184.33L1443.53 183.716C1442.16 183.324 1441.08 182.764 1440.29 182.037C1439.49 181.31 1439.09 180.358 1439.09 179.182C1439.09 178.205 1439.36 177.352 1439.89 176.625C1440.42 175.892 1441.14 175.324 1442.04 174.92C1442.94 174.511 1443.95 174.307 1445.06 174.307C1446.19 174.307 1447.19 174.509 1448.06 174.912C1448.94 175.31 1449.63 175.855 1450.14 176.548C1450.66 177.241 1450.93 178.028 1450.96 178.909H1448.91ZM1464.22 178.909C1464.12 178.045 1463.7 177.375 1462.97 176.898C1462.25 176.42 1461.35 176.182 1460.3 176.182C1459.52 176.182 1458.85 176.307 1458.27 176.557C1457.69 176.807 1457.25 177.151 1456.92 177.588C1456.6 178.026 1456.44 178.523 1456.44 179.08C1456.44 179.545 1456.56 179.946 1456.78 180.281C1457 180.611 1457.29 180.886 1457.65 181.108C1458 181.324 1458.37 181.503 1458.75 181.645C1459.14 181.781 1459.5 181.892 1459.82 181.977L1461.59 182.455C1462.05 182.574 1462.55 182.739 1463.11 182.949C1463.67 183.159 1464.21 183.446 1464.72 183.81C1465.24 184.168 1465.66 184.628 1466 185.19C1466.33 185.753 1466.5 186.443 1466.5 187.261C1466.5 188.205 1466.25 189.057 1465.76 189.818C1465.27 190.58 1464.56 191.185 1463.61 191.634C1462.68 192.082 1461.54 192.307 1460.19 192.307C1458.94 192.307 1457.86 192.105 1456.95 191.702C1456.04 191.298 1455.32 190.736 1454.8 190.014C1454.28 189.293 1453.99 188.455 1453.92 187.5H1456.1C1456.16 188.159 1456.38 188.705 1456.77 189.136C1457.16 189.562 1457.66 189.881 1458.25 190.091C1458.85 190.295 1459.5 190.398 1460.19 190.398C1461 190.398 1461.73 190.267 1462.37 190.006C1463.01 189.739 1463.52 189.369 1463.89 188.898C1464.27 188.42 1464.46 187.864 1464.46 187.227C1464.46 186.648 1464.29 186.176 1463.97 185.812C1463.65 185.449 1463.22 185.153 1462.69 184.926C1462.16 184.699 1461.59 184.5 1460.98 184.33L1458.83 183.716C1457.47 183.324 1456.39 182.764 1455.59 182.037C1454.8 181.31 1454.4 180.358 1454.4 179.182C1454.4 178.205 1454.66 177.352 1455.19 176.625C1455.73 175.892 1456.44 175.324 1457.34 174.92C1458.24 174.511 1459.25 174.307 1460.37 174.307C1461.49 174.307 1462.49 174.509 1463.37 174.912C1464.24 175.31 1464.93 175.855 1465.44 176.548C1465.96 177.241 1466.23 178.028 1466.26 178.909H1464.22ZM1470.69 192H1468.48L1474.89 174.545H1477.07L1483.48 192H1481.26L1476.05 177.307H1475.91L1470.69 192ZM1471.51 185.182H1480.44V187.057H1471.51V185.182ZM1497.31 180C1497.12 179.426 1496.87 178.912 1496.57 178.457C1496.26 177.997 1495.9 177.605 1495.48 177.281C1495.07 176.957 1494.6 176.71 1494.07 176.54C1493.54 176.369 1492.96 176.284 1492.33 176.284C1491.3 176.284 1490.36 176.551 1489.51 177.085C1488.66 177.619 1487.99 178.406 1487.49 179.446C1486.99 180.486 1486.74 181.761 1486.74 183.273C1486.74 184.784 1486.99 186.06 1487.5 187.099C1488 188.139 1488.69 188.926 1489.55 189.46C1490.42 189.994 1491.39 190.261 1492.47 190.261C1493.47 190.261 1494.35 190.048 1495.11 189.622C1495.88 189.19 1496.47 188.582 1496.9 187.798C1497.33 187.009 1497.55 186.08 1497.55 185.011L1498.19 185.148H1492.94V183.273H1499.59V185.148C1499.59 186.585 1499.28 187.835 1498.67 188.898C1498.06 189.96 1497.22 190.784 1496.15 191.369C1495.08 191.949 1493.85 192.239 1492.47 192.239C1490.92 192.239 1489.56 191.875 1488.39 191.148C1487.23 190.42 1486.32 189.386 1485.67 188.045C1485.02 186.705 1484.69 185.114 1484.69 183.273C1484.69 181.892 1484.88 180.651 1485.25 179.548C1485.62 178.44 1486.15 177.497 1486.83 176.719C1487.51 175.94 1488.32 175.344 1489.25 174.929C1490.19 174.514 1491.21 174.307 1492.33 174.307C1493.25 174.307 1494.11 174.446 1494.9 174.724C1495.7 174.997 1496.42 175.386 1497.04 175.892C1497.67 176.392 1498.2 176.991 1498.62 177.69C1499.04 178.384 1499.33 179.153 1499.49 180H1497.31ZM1503.21 192V174.545H1513.75V176.42H1505.32V182.318H1513.2V184.193H1505.32V190.125H1513.88V192H1503.21ZM1424.74 221V203.545H1426.86V211.318H1436.16V203.545H1438.28V221H1436.16V213.193H1426.86V221H1424.74ZM1457.24 212.273C1457.24 214.114 1456.9 215.705 1456.24 217.045C1455.57 218.386 1454.66 219.42 1453.5 220.148C1452.34 220.875 1451.02 221.239 1449.53 221.239C1448.04 221.239 1446.72 220.875 1445.56 220.148C1444.4 219.42 1443.49 218.386 1442.82 217.045C1442.16 215.705 1441.83 214.114 1441.83 212.273C1441.83 210.432 1442.16 208.841 1442.82 207.5C1443.49 206.159 1444.4 205.125 1445.56 204.398C1446.72 203.67 1448.04 203.307 1449.53 203.307C1451.02 203.307 1452.34 203.67 1453.5 204.398C1454.66 205.125 1455.57 206.159 1456.24 207.5C1456.9 208.841 1457.24 210.432 1457.24 212.273ZM1455.19 212.273C1455.19 210.761 1454.94 209.486 1454.43 208.446C1453.93 207.406 1453.25 206.619 1452.39 206.085C1451.54 205.551 1450.59 205.284 1449.53 205.284C1448.47 205.284 1447.52 205.551 1446.66 206.085C1445.81 206.619 1445.13 207.406 1444.62 208.446C1444.12 209.486 1443.87 210.761 1443.87 212.273C1443.87 213.784 1444.12 215.06 1444.62 216.099C1445.13 217.139 1445.81 217.926 1446.66 218.46C1447.52 218.994 1448.47 219.261 1449.53 219.261C1450.59 219.261 1451.54 218.994 1452.39 218.46C1453.25 217.926 1453.93 217.139 1454.43 216.099C1454.94 215.06 1455.19 213.784 1455.19 212.273ZM1460.79 203.545H1463.31L1469.24 218.034H1469.45L1475.38 203.545H1477.9V221H1475.93V207.739H1475.76L1470.3 221H1468.39L1462.94 207.739H1462.77V221H1460.79V203.545ZM1482.14 221V203.545H1492.68V205.42H1484.25V211.318H1492.13V213.193H1484.25V219.125H1492.81V221H1482.14Z" fill="black"/>
</g>
<defs>
<clipPath id="clip0_0_1">
<rect width="1194" height="834" fill="white"/>
</clipPath>
<clipPath id="clip1_0_1">
<rect width="460" height="852" fill="white" transform="translate(1229)"/>
</clipPath>
</defs>
</svg>
